# xmcd
#
# Track frame offsets:
#       150
#       14656
#       32099
#       59418
#       77795
#       89395
#       108806
#       130956
#
# Disc length: 2007 seconds
#
# Revision: 0
# Processed by: cddbd v1.4PL0 Copyright (c) Steve Scherf et al.
# Submitted via: WhereIsIt 3.52
#
DISCID=6307d508
DTITLE=Taj Mahal - Oooh So Good'N Blues
DYEAR=1973
DGENRE=Blues
TTITLE0=Buck Dancer's Choice
TTITLE1=Little Red Hen
TTITLE2=Mama Don't You Know
TTITLE3=Frankie And Albert
TTITLE4=Railroad Bill
TTITLE5=Dust My Broom
TTITLE6=Built For Comfort
TTITLE7=Teacup's Jazzy Blues Tune
EXTD=
EXTT0=
EXTT1=
EXTT2=
EXTT3=
EXTT4=
EXTT5=
EXTT6=
EXTT7=
PLAYORDER=
